<?xml version="1.0"?><svg style="enable-background:new 0 0 24 24;" version="1.1" viewBox="0 0 24 24" xml:space="preserve" xmlns="http://www.w3.org/2000/svg" xmlns:xlink="http://www.w3.org/1999/xlink"><style type="text/css">
	.st0{display:none;}
</style><g class="st0" id="grid"/><g id="icon"><path d="M22.184,9.271c0.209-0.272,0.369-0.579,0.472-0.906C22.9,7.577,22.805,6.715,22.393,6   c-0.413-0.715-1.111-1.229-1.917-1.411c-0.335-0.073-0.68-0.088-1.021-0.044c0.045-0.34,0.031-0.687-0.045-1.021   C19.229,2.719,18.715,2.021,18,1.607c-0.714-0.411-1.576-0.509-2.364-0.263c-0.328,0.103-0.635,0.263-0.907,0.472   C14.598,1.5,14.413,1.207,14.18,0.955c-1.119-1.215-3.24-1.215-4.359,0C9.587,1.207,9.402,1.5,9.271,1.816   C8.999,1.607,8.692,1.447,8.365,1.345C7.575,1.099,6.715,1.196,6,1.607C5.285,2.021,4.771,2.719,4.589,3.524   C4.514,3.859,4.5,4.205,4.545,4.545C4.204,4.501,3.86,4.515,3.523,4.59C2.719,4.771,2.021,5.285,1.607,6   C1.195,6.715,1.1,7.577,1.345,8.364c0.103,0.328,0.263,0.635,0.472,0.907C1.5,9.402,1.207,9.587,0.955,9.82   C0.348,10.38,0,11.175,0,12s0.348,1.62,0.955,2.18c0.252,0.233,0.545,0.418,0.861,0.549c-0.209,0.272-0.369,0.579-0.472,0.906   C1.1,16.423,1.195,17.285,1.607,18c0.413,0.715,1.111,1.229,1.917,1.411c0.335,0.074,0.681,0.089,1.021,0.044   c-0.045,0.34-0.031,0.687,0.045,1.021c0.181,0.805,0.695,1.503,1.41,1.916c0.714,0.411,1.576,0.509,2.364,0.263   c0.328-0.103,0.635-0.263,0.907-0.472c0.131,0.316,0.315,0.609,0.549,0.861C10.38,23.652,11.175,24,12,24s1.62-0.348,2.18-0.955   c0.233-0.252,0.418-0.545,0.549-0.861c0.272,0.209,0.579,0.369,0.906,0.472c0.792,0.247,1.651,0.149,2.365-0.263   c0.715-0.413,1.229-1.111,1.411-1.917c0.075-0.335,0.089-0.681,0.044-1.021c0.341,0.044,0.686,0.03,1.021-0.045   c0.805-0.181,1.503-0.695,1.916-1.41c0.412-0.715,0.508-1.577,0.263-2.364c-0.103-0.328-0.263-0.635-0.472-0.907   c0.316-0.131,0.609-0.315,0.861-0.549C23.652,13.62,24,12.825,24,12s-0.348-1.62-0.955-2.18C22.793,9.587,22.5,9.402,22.184,9.271z    M22.367,13.445c-0.331,0.305-0.77,0.485-1.234,0.51c-0.217,0.011-0.401,0.16-0.458,0.369c-0.056,0.21,0.029,0.432,0.212,0.55   c0.391,0.253,0.68,0.629,0.813,1.059c0.165,0.53,0.104,1.087-0.174,1.567c-0.277,0.481-0.729,0.813-1.27,0.935   c-0.44,0.101-0.909,0.036-1.325-0.176c-0.193-0.1-0.428-0.061-0.581,0.092c-0.153,0.153-0.19,0.388-0.092,0.581   c0.213,0.415,0.275,0.886,0.177,1.324c-0.122,0.542-0.454,0.993-0.936,1.271c-0.481,0.278-1.034,0.339-1.567,0.174   c-0.43-0.134-0.806-0.423-1.059-0.813c-0.117-0.182-0.339-0.263-0.55-0.212c-0.209,0.057-0.358,0.241-0.369,0.458   c-0.024,0.465-0.205,0.903-0.51,1.234c-0.754,0.816-2.137,0.816-2.891,0c-0.305-0.331-0.485-0.77-0.51-1.234   c-0.011-0.217-0.16-0.401-0.369-0.458c-0.043-0.011-0.087-0.017-0.13-0.017c-0.167,0-0.326,0.084-0.42,0.229   c-0.253,0.391-0.629,0.68-1.059,0.813c-0.532,0.165-1.086,0.104-1.567-0.174c-0.481-0.277-0.813-0.729-0.935-1.27   c-0.1-0.439-0.037-0.91,0.176-1.325c0.099-0.193,0.062-0.428-0.092-0.581c-0.152-0.152-0.387-0.191-0.581-0.092   c-0.417,0.212-0.888,0.273-1.324,0.177c-0.542-0.122-0.993-0.454-1.271-0.936c-0.277-0.48-0.339-1.037-0.174-1.567   c0.134-0.43,0.423-0.806,0.813-1.059c0.183-0.118,0.268-0.34,0.212-0.55c-0.057-0.209-0.241-0.358-0.458-0.369   c-0.465-0.024-0.903-0.205-1.234-0.51C1.225,13.068,1,12.556,1,12s0.225-1.068,0.633-1.445c0.331-0.305,0.77-0.485,1.234-0.51   c0.217-0.011,0.401-0.16,0.458-0.369c0.056-0.21-0.029-0.432-0.212-0.55C2.723,8.873,2.434,8.497,2.3,8.067   C2.135,7.537,2.196,6.98,2.474,6.5c0.277-0.481,0.729-0.813,1.27-0.935c0.44-0.102,0.908-0.037,1.325,0.176   c0.194,0.1,0.429,0.061,0.581-0.092c0.153-0.153,0.19-0.388,0.092-0.581C5.528,4.653,5.466,4.183,5.564,3.744   C5.687,3.202,6.019,2.751,6.5,2.474S7.535,2.135,8.067,2.3c0.43,0.134,0.806,0.423,1.059,0.813c0.118,0.182,0.341,0.265,0.55,0.212   c0.209-0.057,0.358-0.241,0.369-0.458c0.024-0.465,0.205-0.903,0.51-1.234c0.754-0.816,2.137-0.816,2.891,0   c0.305,0.331,0.485,0.77,0.51,1.234c0.011,0.217,0.16,0.401,0.369,0.458c0.21,0.053,0.432-0.03,0.55-0.212   c0.253-0.391,0.629-0.68,1.059-0.813c0.533-0.165,1.086-0.104,1.567,0.174s0.813,0.729,0.935,1.27   c0.1,0.439,0.037,0.91-0.176,1.325c-0.099,0.193-0.062,0.428,0.092,0.581c0.153,0.152,0.388,0.191,0.581,0.092   c0.416-0.213,0.886-0.274,1.324-0.177c0.542,0.122,0.993,0.454,1.271,0.936c0.277,0.48,0.339,1.037,0.174,1.567   c-0.134,0.43-0.423,0.806-0.813,1.059c-0.183,0.118-0.268,0.34-0.212,0.55c0.057,0.209,0.241,0.358,0.458,0.369   c0.465,0.024,0.903,0.205,1.234,0.51C22.775,10.932,23,11.444,23,12S22.775,13.068,22.367,13.445z"/><path d="M15.854,8.146c-0.195-0.195-0.512-0.195-0.707,0L12,11.293L8.854,8.146c-0.195-0.195-0.512-0.195-0.707,0   s-0.195,0.512,0,0.707L11.293,12l-3.146,3.146c-0.195,0.195-0.195,0.512,0,0.707C8.244,15.951,8.372,16,8.5,16   s0.256-0.049,0.354-0.146L12,12.707l3.146,3.146C15.244,15.951,15.372,16,15.5,16s0.256-0.049,0.354-0.146   c0.195-0.195,0.195-0.512,0-0.707L12.707,12l3.146-3.146C16.049,8.658,16.049,8.342,15.854,8.146z"/></g></svg>